<svg width="24" height="24" viewBox="0 0 24 24" fill="none" xmlns="http://www.w3.org/2000/svg">
<path d="M20.2668 3.73945C17.9857 1.44574 15.7555 1.39477 13.4107 3.73945L11.9706 5.16665C11.8432 5.29408 11.805 5.47247 11.856 5.63813C12.748 8.76013 15.2458 11.2577 18.368 12.1497C18.4063 12.1625 18.47 12.1625 18.5082 12.1625C18.6356 12.1625 18.7631 12.1115 18.8523 12.0223L20.2668 10.5951C21.4265 9.4355 22 8.32687 22 7.19276C22 6.0459 21.4265 4.91179 20.2668 3.73945Z" fill="white"/>
<path d="M16.2394 13.2202C15.8953 13.0545 15.5639 12.8889 15.2581 12.6977C15.0032 12.5448 14.7483 12.3792 14.5062 12.2008C14.3023 12.0733 14.0729 11.8822 13.8435 11.691C13.818 11.6783 13.7416 11.6146 13.6396 11.5126C13.2446 11.1941 12.824 10.7608 12.429 10.2893C12.4035 10.2638 12.327 10.1874 12.2633 10.0727C12.1359 9.93253 11.9447 9.69042 11.779 9.42282C11.6389 9.24442 11.4732 8.98956 11.3203 8.72197C11.1291 8.40339 10.9634 8.08482 10.8105 7.75351C10.6448 7.39671 10.5174 7.0654 10.4027 6.74683L3.54656 13.6025C3.10052 14.0485 2.66723 14.8895 2.57803 15.5139L2.03005 19.3113C1.91535 20.1141 2.132 20.8659 2.629 21.3629C3.04955 21.7834 3.62302 22 4.26021 22C4.40039 22 4.54057 21.9873 4.68075 21.9745L8.46565 21.4393C9.0901 21.3501 9.93119 20.9296 10.3772 20.4709L17.2334 13.6152C16.9148 13.5133 16.5962 13.3731 16.2394 13.2202Z" fill="white"/>
</svg>
