<svg width="24" height="24" viewBox="0 0 24 24" fill="none" xmlns="http://www.w3.org/2000/svg">
<path d="M10.1667 3.66669H8.50002C4.33335 3.66669 2.66669 5.33335 2.66669 9.50002V14.5C2.66669 18.6667 4.33335 20.3334 8.50002 20.3334H13.5C17.6667 20.3334 19.3334 18.6667 19.3334 14.5V12.8334" stroke="white" stroke-width="1.66667" stroke-linecap="round" stroke-linejoin="round"/>
<path d="M14.3667 4.51669L7.80002 11.0834C7.55002 11.3334 7.30002 11.825 7.25002 12.1834L6.89169 14.6917C6.75835 15.6 7.40002 16.2334 8.30835 16.1084L10.8167 15.75C11.1667 15.7 11.6584 15.45 11.9167 15.2L18.4834 8.63336C19.6167 7.50003 20.15 6.18336 18.4834 4.51669C16.8167 2.85003 15.5 3.38336 14.3667 4.51669Z" stroke="white" stroke-width="1.66667" stroke-miterlimit="10" stroke-linecap="round" stroke-linejoin="round"/>
<path d="M13.425 5.45837C13.9833 7.45004 15.5417 9.00837 17.5417 9.57504" stroke="white" stroke-width="1.66667" stroke-miterlimit="10" stroke-linecap="round" stroke-linejoin="round"/>
</svg>
