<svg width="24" height="24" viewBox="0 0 24 24" fill="none" xmlns="http://www.w3.org/2000/svg">
<path fill-rule="evenodd" clip-rule="evenodd" d="M8 4H16C18.2091 4 20 5.79086 20 8V11.0046C17.4146 11.0761 15.1872 11.9819 13.5846 13.5846C11.9819 15.1872 11.0761 17.4146 11.0046 20H8C5.79086 20 4 18.2091 4 16V8C4 5.79086 5.79086 4 8 4ZM13.0055 20H16C18.2091 20 20 18.2091 20 16V13.0055C17.8826 13.0756 16.1828 13.8147 14.9988 14.9988C13.8147 16.1828 13.0756 17.8826 13.0055 20ZM2 8C2 4.68629 4.68629 2 8 2H16C19.3137 2 22 4.68629 22 8V16C22 19.3137 19.3137 22 16 22H8C4.68629 22 2 19.3137 2 16V8ZM8.96429 8C8.43173 8 8 8.43173 8 8.96429C8 9.49685 8.43173 9.92857 8.96429 9.92857C9.49685 9.92857 9.92857 9.49685 9.92857 8.96429C9.92857 8.43173 9.49685 8 8.96429 8ZM6 8.96429C6 7.32716 7.32716 6 8.96429 6C10.6014 6 11.9286 7.32716 11.9286 8.96429C11.9286 10.6014 10.6014 11.9286 8.96429 11.9286C7.32716 11.9286 6 10.6014 6 8.96429Z" fill="white"/>
</svg>
