<svg width="24" height="24" viewBox="0 0 24 24" fill="none" xmlns="http://www.w3.org/2000/svg">
<path fill-rule="evenodd" clip-rule="evenodd" d="M19.0166 4.99197C17.2218 3.19723 14.2946 3.19412 12.5054 4.98334L5.93849 11.5502C5.65963 11.8291 5.40556 12.1958 5.20714 12.5464C5.00823 12.898 4.82625 13.3024 4.72865 13.6806L4.7286 13.6806L4.72626 13.69L4.2613 15.5671L4.26089 15.5687C3.93434 16.8714 4.12597 18.1505 4.98766 19.0122C5.84935 19.8739 7.12845 20.0656 8.43117 19.739L8.4328 19.7386L10.3099 19.2736L10.3099 19.2737L10.3193 19.2713C10.6975 19.1737 11.1019 18.9917 11.4535 18.7928C11.8041 18.5943 12.1708 18.3403 12.4497 18.0614L18.2028 12.3083C18.2073 12.304 18.2118 12.2996 18.2162 12.2951C18.2207 12.2907 18.2251 12.2862 18.2295 12.2817L19.0166 11.4945C20.8042 9.70687 20.8042 6.77963 19.0166 4.99197ZM17.509 10.1737L17.6024 10.0803C18.609 9.07371 18.609 7.4128 17.6023 6.40618C16.5856 5.38938 14.9246 5.39249 13.9196 6.39756L13.8262 6.49091L17.509 10.1737ZM12.412 7.90512L7.35271 12.9644C7.24348 13.0737 7.0922 13.2762 6.94781 13.5314C6.80511 13.7835 6.70725 14.0198 6.66624 14.1763L6.20188 16.051L6.20113 16.054C5.98491 16.9154 6.1902 17.3864 6.40188 17.598C6.61355 17.8097 7.08449 18.015 7.94592 17.7988L7.94892 17.798L9.82355 17.3337C9.98011 17.2927 10.2164 17.1948 10.4685 17.0521C10.7237 16.9077 10.9263 16.7564 11.0355 16.6472L16.0948 11.5879L12.412 7.90512Z" fill="white"/>
</svg>
