<svg width="24" height="20" viewBox="0 0 24 20" fill="none" xmlns="http://www.w3.org/2000/svg">
<path d="M7.99478 3.35551H18.7449L18.0561 2.66667C17.4507 2.06132 17.4507 1.05936 18.0561 0.454012C18.6614 -0.151337 19.6634 -0.151337 20.2688 0.454012L23.546 3.73125C24.1513 4.33659 24.1513 5.33855 23.546 5.9439L20.2688 9.22113C19.9556 9.53425 19.559 9.68037 19.1624 9.68037C18.7658 9.68037 18.3692 9.53425 18.0561 9.22113C17.4507 8.61579 17.4507 7.61383 18.0561 7.00848L18.5988 6.46575H7.99478C5.3229 6.46575 3.13112 8.63666 3.13112 11.3294C3.13112 14.0222 5.30202 16.1931 7.99478 16.1931H18.2648C19.1207 16.1931 19.8304 16.9028 19.8304 17.7586C19.8304 18.6145 19.1207 19.3242 18.2648 19.3242H7.99478C3.59035 19.3242 2.16641e-07 15.7339 2.16641e-07 11.3294C2.16641e-07 6.92498 3.59035 3.35551 7.99478 3.35551Z" fill="white"/>
</svg>
