<svg width="32" height="32" viewBox="0 0 32 32" fill="none" xmlns="http://www.w3.org/2000/svg">
<path d="M0 16C0 7.16344 7.16344 0 16 0C24.8366 0 32 7.16344 32 16C32 24.8366 24.8366 32 16 32C7.16344 32 0 24.8366 0 16Z" fill="#34AAFF"/>
<path fill-rule="evenodd" clip-rule="evenodd" d="M21.0693 13.673L15.3309 10.8192C11.4763 8.89895 9.89419 10.4725 11.8249 14.3064L12.3375 15.3261L17.0249 15.7506C17.0349 15.7513 17.0448 15.7526 17.0545 15.7544C17.1722 15.7766 17.2579 15.8801 17.2576 16C17.2579 16.12 17.1722 16.2234 17.0545 16.2456C17.0448 16.2474 17.0349 16.2487 17.0249 16.2494L12.3412 16.6724L11.8249 17.6936C9.89419 21.5275 11.4696 23.101 15.3309 21.1808L21.0693 18.327C23.6436 17.0468 23.6436 14.9532 21.0693 13.673Z" fill="white"/>
</svg>
