<svg width="24" height="20" viewBox="0 0 24 20" fill="none" xmlns="http://www.w3.org/2000/svg">
<path d="M16.0052 3.35551H5.25506L5.9439 2.66667C6.54925 2.06132 6.54925 1.05936 5.9439 0.454012C5.33855 -0.151337 4.3366 -0.151337 3.73125 0.454012L0.454012 3.73125C-0.151337 4.33659 -0.151337 5.33855 0.454012 5.9439L3.73125 9.22113C4.04436 9.53425 4.44097 9.68037 4.83757 9.68037C5.23418 9.68037 5.63079 9.53425 5.9439 9.22113C6.54925 8.61579 6.54925 7.61383 5.9439 7.00848L5.40117 6.46575H16.0052C18.6771 6.46575 20.8689 8.63666 20.8689 11.3294C20.8689 14.0222 18.698 16.1931 16.0052 16.1931H5.73516C4.87932 16.1931 4.1696 16.9028 4.1696 17.7586C4.1696 18.6145 4.87932 19.3242 5.73516 19.3242H16.0052C20.4097 19.3242 24 15.7339 24 11.3294C24 6.92498 20.4097 3.35551 16.0052 3.35551Z" fill="white"/>
</svg>
