<svg width="20" height="20" viewBox="0 0 20 20" fill="none" xmlns="http://www.w3.org/2000/svg">
<path d="M20 0H0V20H20V0Z" fill="#DCDCDC"/>
<path d="M16 20C15.5 20 14.677 20 13.9037 20H6.09627C5.32298 20 4.5 20 4 20C4.32609 17.3758 6.89752 15 10 15C13.1025 15 15.6739 17.3758 16 20Z" fill="#41464D"/>
<path d="M13.5799 9.58002C13.5799 11.56 11.9799 13.17 9.99992 13.17C8.01992 13.17 6.41992 11.56 6.41992 9.58002C6.41992 7.60002 8.01992 6 9.99992 6C11.9799 6 13.5799 7.60002 13.5799 9.58002Z" fill="#41464D"/>
</svg>
