<svg width="24" height="24" viewBox="0 0 24 24" fill="none" xmlns="http://www.w3.org/2000/svg">
<path fill-rule="evenodd" clip-rule="evenodd" d="M11 7C11 8.10457 10.1046 9 9 9C7.89543 9 7 8.10457 7 7C7 5.89543 7.89543 5 9 5C10.1046 5 11 5.89543 11 7Z" stroke="white" stroke-width="2" stroke-linecap="round" stroke-linejoin="round"/>
<path fill-rule="evenodd" clip-rule="evenodd" d="M14 15.5C14 17.433 11.761 19 9 19C6.239 19 4 17.433 4 15.5C4 13.567 6.239 12 9 12C11.761 12 14 13.567 14 15.5Z" stroke="white" stroke-width="2" stroke-linecap="round" stroke-linejoin="round"/>
<path d="M18 7C18 6.44772 17.5523 6 17 6C16.4477 6 16 6.44772 16 7H18ZM16 9C16 9.55228 16.4477 10 17 10C17.5523 10 18 9.55228 18 9H16ZM18 9C18 8.44772 17.5523 8 17 8C16.4477 8 16 8.44772 16 9H18ZM16 11C16 11.5523 16.4477 12 17 12C17.5523 12 18 11.5523 18 11H16ZM17 10C17.5523 10 18 9.55228 18 9C18 8.44772 17.5523 8 17 8V10ZM15 8C14.4477 8 14 8.44772 14 9C14 9.55228 14.4477 10 15 10V8ZM17 8C16.4477 8 16 8.44772 16 9C16 9.55228 16.4477 10 17 10V8ZM19 10C19.5523 10 20 9.55228 20 9C20 8.44772 19.5523 8 19 8V10ZM16 7V9H18V7H16ZM16 9V11H18V9H16ZM17 8H15V10H17V8ZM17 10H19V8H17V10Z" fill="white"/>
</svg>
