<svg width="24" height="24" viewBox="0 0 24 24" fill="none" xmlns="http://www.w3.org/2000/svg">
<path fill-rule="evenodd" clip-rule="evenodd" d="M14.5 7.5C14.5 8.88071 13.3807 10 12 10C10.6193 10 9.5 8.88071 9.5 7.5C9.5 6.11929 10.6193 5 12 5C13.3807 5 14.5 6.11929 14.5 7.5Z" stroke="white" stroke-width="2" stroke-linecap="round" stroke-linejoin="round"/>
<path fill-rule="evenodd" clip-rule="evenodd" d="M17 16.3421C17 18.2368 14.7611 19.781 12 19.781C9.23895 19.781 7 18.241 7 16.3421C7 14.4431 9.23895 12.9042 12 12.9042C14.7611 12.9042 17 14.4431 17 16.3421Z" stroke="white" stroke-width="2" stroke-linecap="round" stroke-linejoin="round"/>
<path fill-rule="evenodd" clip-rule="evenodd" d="M20.7893 9.28383C20.8035 10.0958 20.3254 10.8357 19.5793 11.1564C18.8332 11.477 17.9673 11.3147 17.3881 10.7455C16.8088 10.1764 16.6312 9.31354 16.9385 8.5619C17.2459 7.81026 17.9773 7.31911 18.7894 7.31898C19.8841 7.30964 20.7793 8.18913 20.7893 9.28383Z" stroke="white" stroke-width="2" stroke-linecap="round" stroke-linejoin="round"/>
<path fill-rule="evenodd" clip-rule="evenodd" d="M3.21064 9.28383C3.19639 10.0958 3.67452 10.8357 4.42061 11.1564C5.16669 11.477 6.03259 11.3147 6.61186 10.7455C7.19114 10.1764 7.36877 9.31354 7.06139 8.5619C6.75401 7.81026 6.02264 7.31911 5.21057 7.31898C4.11587 7.30964 3.22067 8.18913 3.21064 9.28383Z" stroke="white" stroke-width="2" stroke-linecap="round" stroke-linejoin="round"/>
<path d="M19.0892 17.8029C18.5391 17.7537 18.0533 18.1597 18.004 18.7097C17.9548 19.2598 18.3608 19.7457 18.9108 19.7949L19.0892 17.8029ZM22 16.3421L22.9941 16.451C23.002 16.3785 23.002 16.3053 22.994 16.2328L22 16.3421ZM18.9108 12.8903C18.3607 12.9396 17.9547 13.4254 18.004 13.9755C18.0533 14.5256 18.5392 14.9316 19.0893 14.8823L18.9108 12.8903ZM5.08919 19.7949C5.63927 19.7457 6.04527 19.2598 5.99602 18.7097C5.94676 18.1596 5.4609 17.7536 4.91081 17.8029L5.08919 19.7949ZM2 16.3421L1.00599 16.2328C0.998018 16.3053 0.998004 16.3785 1.00595 16.451L2 16.3421ZM4.91077 14.8823C5.46086 14.9316 5.94673 14.5256 5.99601 13.9755C6.04529 13.4254 5.63931 12.9395 5.08923 12.8903L4.91077 14.8823ZM18.9108 19.7949C20.9554 19.978 22.7705 18.4915 22.9941 16.451L21.006 16.2332C20.901 17.1911 20.049 17.8889 19.0892 17.8029L18.9108 19.7949ZM22.994 16.2328C22.7698 14.1929 20.9548 12.7072 18.9108 12.8903L19.0893 14.8823C20.0488 14.7964 20.9007 15.4938 21.006 16.4514L22.994 16.2328ZM4.91081 17.8029C3.95106 17.8888 3.09899 17.191 2.99405 16.2332L1.00595 16.451C1.22949 18.4915 3.04465 19.978 5.08919 19.7949L4.91081 17.8029ZM2.99401 16.4513C3.09928 15.4937 3.95126 14.7963 4.91077 14.8823L5.08923 12.8903C3.04519 12.7071 1.23025 14.1929 1.00599 16.2328L2.99401 16.4513Z" fill="white"/>
</svg>
